<?xml version="1.0" encoding="utf-8"?>
<!-- Svg Vector Icons : http://www.sfont.cn -->
<!DOCTYPE svg PUBLIC "-//W3C//DTD SVG 1.1//EN" "http://www.w3.org/Graphics/SVG/1.1/DTD/svg11.dtd">
<svg version="1.1" xmlns="http://www.w3.org/2000/svg" xmlns:xlink="http://www.w3.org/1999/xlink" x="0px" y="0px" viewBox="0 0 1000 1000" enable-background="new 0 0 1000 1000" xml:space="preserve">
<metadata> Svg Vector Icons : http://www.sfont.cn </metadata>
<g><path d="M404.2,501.5c51.6,0,93.7-41.1,93.7-91.6c0-50.5-42-91.6-93.7-91.6c-51.6,0-93.7,41.1-93.7,91.6c0,24.5,9.8,47.6,27.6,64.9C355.9,492.1,379.3,501.5,404.2,501.5z M404.2,352c33.1,0,60.1,26,60.1,58c0,32-26.9,58-60.1,58c-16.1,0-31.2-6.1-42.6-17.2c-11.3-10.9-17.4-25.4-17.4-40.8C344.2,378,371.1,352,404.2,352z"/><path d="M990,280.3c0-15.4-5.4-31.1-14.8-43.1c-10.9-13.9-26.1-21.6-42.6-21.6h-45v-2.2c0-36.7-27.7-59.5-72.2-59.5H200.8c-3.3,0-6.4-0.1-9.5-0.1c-21.1-0.2-37.7-0.4-51.5,6.1c-24.8,11.8-26.1,40-26.5,49.3c-0.1,2.1-0.2,4.3-0.2,6.7l-42-0.1c-33.3,0-60.4,26.8-60.4,59.7v433.1H10v16.8c0,33,27.2,59.9,60.5,59.9h42.6c0.6,22.3,5.6,37.5,15.7,47.5c12.3,12.2,28.2,13.5,44.2,13.5c2.1,0,4.3,0,6.4,0c2.2,0,4.4,0,6.7,0h630c22.8,0,63.5,0,70.5-52.3h46c14.3,0,28-5.9,38.6-16.6c11.9-12.1,19-29.3,18.8-46.2c0-2.7,0-11,0-11V280.3z M112.9,751.8H70.5c-12.9,0-23.8-9-26.4-20.9V275.6c0-14.4,12-26.1,26.8-26.1l41.9,0.1V751.8z M854,777.1c0,16.4-3,26.8-8.8,30.9c-6.1,4.3-18.3,4.7-29.2,4.7h-630c-2.4,0-4.7,0-7,0c-11.6,0.1-22.6,0.2-26.5-3.7c-2.2-2.2-5.9-8.9-5.8-28.7l0-0.3l-0.3-8.6h0.1V232.7c0-7.7,0-15.8,0.3-22c0.8-17.4,5.4-19.6,7.4-20.5c6.8-3.2,20.6-3.1,36.7-2.9c3.1,0,6.4,0.1,9.8,0.1h614.8c38.6,0,38.6,19.5,38.6,25.9V777.1z M947.3,753.7c-3,3-8,6.6-14.7,6.6h-45V249.2h45c14,0,23.8,16.4,23.8,31V720c0,0,0,8.6,0,11.4C956.5,739.4,953,747.9,947.3,753.7z"/><path d="M791.3,419.2c-8.8-6.7-20-9-30.7-6.3c-43.9,10.7-80.7,30.5-112.4,60.6c-26.8,25.4-45.2,53.8-60,76.7c-22.5,34.6-33.2,48.7-48.8,48.7c-27.8,0-45.2-10.5-65.3-22.8l-3.3-2c-24.3-14.7-51.8-31.3-94.2-31.3c-34.4,0-73.7,16.7-116.6,49.8c-30.3,23.3-54.1,48.6-60.7,56.4l-4,4.7l0,55.5c0,19.2,15.8,34.3,36,34.3h538c20.2,0,36-15.1,36-34.3V447.3C805.3,436.4,800.1,425.9,791.3,419.2z M771.7,709C771.7,709.1,771.7,709.1,771.7,709c-0.2,0.3-1,0.7-2.4,0.7h-538c-1.4,0-2.2-0.4-2.4-0.6c0,0,0,0,0-0.1l0-42.8c17.3-18.6,87.8-89.9,147.7-89.9c33.1,0,54.3,12.9,76.8,26.5l3.2,1.9c21.3,13,45.5,27.7,82.8,27.7c35.4,0,53.7-28.2,76.9-64c29.5-45.4,66.2-102,152.3-122.9l0.1,0c0.8-0.2,1.7,0,2.3,0.5c0.5,0.4,0.8,0.9,0.8,1.4L771.7,709L771.7,709z"/></g>
</svg>