<?xml version="1.0" encoding="utf-8"?>
<!-- Svg Vector Icons : http://www.sfont.cn -->
<!DOCTYPE svg PUBLIC "-//W3C//DTD SVG 1.1//EN" "http://www.w3.org/Graphics/SVG/1.1/DTD/svg11.dtd">
<svg version="1.1" xmlns="http://www.w3.org/2000/svg" xmlns:xlink="http://www.w3.org/1999/xlink" x="0px" y="0px" viewBox="0 0 1000 1000" enable-background="new 0 0 1000 1000" xml:space="preserve">
<metadata> Svg Vector Icons : http://www.sfont.cn </metadata>
<g><path d="M908.3,214.1H91.7c-45.1,0-81.7,36.6-81.7,81.7v408.4c0,45.1,36.6,81.7,81.7,81.7h816.7c45.1,0,81.7-36.6,81.7-81.7V295.8C990,250.7,953.4,214.1,908.3,214.1z M949.2,675c0,38.6-33.6,70-74.8,70H125.7c-41.4,0-74.8-31.4-74.8-70V325c0-38.6,33.5-70,74.8-70h748.6c41.3,0,74.8,31.4,74.8,70V675z"/><path d="M260.7,441.6c-14,0-26.2,2.9-36.4,8.6c-10.2,5.8-19.2,14.4-26.8,25.8V334.4h-38.3v327.3h38.3V633c7.7,11.5,16.6,19.8,26.8,24.9c10.2,5.1,22.3,7.7,36.4,7.7c25.5,0,47.2-9.3,65.1-27.8c17.8-18.4,26.8-46.2,26.8-83.3c0-37-8.9-65.1-26.8-84.2C307.9,451.2,286.2,441.6,260.7,441.6z M296.1,611c-9.6,13.4-23.9,20.1-43.1,20.1c-15.3,0-28.4-6.7-39.2-20.1c-10.9-13.4-16.3-32.2-16.3-56.4c0-24.2,5.4-43.4,16.3-57.4c10.8-14,23.9-21.1,39.2-21.1c19.2,0,33.5,7,43.1,21.1c9.6,14.1,14.4,33.2,14.4,57.4C310.5,578.8,305.7,597.6,296.1,611z"/><path d="M534.5,631.1c-14.1,0-23.6-3.5-28.7-10.5c-5.1-6.9-7.7-15.6-7.7-25.8V478h78.5v-30.6h-78.5v-74.6h-38.3v74.6h-65V478h65.1v114.8c0,23,7,40.9,21.1,53.6c14,12.8,32.5,19.2,55.5,19.2c14,0,25.2-0.9,33.5-2.9c8.2-1.9,15.6-4.1,22-6.7v-38.3c-6.4,3.8-14.1,7-23,9.6C559.9,629.9,548.5,631.1,534.5,631.1z"/><path d="M771.8,443.5c-19.2,0-34.8,3.8-46.9,11.5s-23.3,18.5-33.5,32.5v-40.2h-38.3v214.4h38.3v-97.6c0-25.5,7.3-46.9,22-64.1c14.7-17.2,30.3-25.8,46.9-25.8c12.8,0,23,4.5,30.6,13.4c7.7,8.9,11.5,21.1,11.5,36.4v137.8h38.3V510.5c0-19.2-5.8-35.1-17.2-47.9C812,449.9,794.8,443.5,771.8,443.5z"/></g>
</svg>