<?xml version="1.0" encoding="utf-8"?>
<!-- Svg Vector Icons : http://www.sfont.cn -->
<!DOCTYPE svg PUBLIC "-//W3C//DTD SVG 1.1//EN" "http://www.w3.org/Graphics/SVG/1.1/DTD/svg11.dtd">
<svg version="1.1" xmlns="http://www.w3.org/2000/svg" xmlns:xlink="http://www.w3.org/1999/xlink" x="0px" y="0px" viewBox="0 0 1000 1000" enable-background="new 0 0 1000 1000" xml:space="preserve">
<metadata> Svg Vector Icons : http://www.sfont.cn </metadata>
<g><path d="M752.1,10H247.9C116.5,10,10,116.5,10,247.9v504.2C10,883.5,116.5,990,247.9,990h504.2C883.5,990,990,883.5,990,752.1V247.9C990,116.5,883.5,10,752.1,10z M947.4,752.1c0,52.2-20.3,101.2-57.2,138.1c-36.9,36.9-85.9,57.2-138.1,57.2H247.9c-52.2,0-101.2-20.3-138.1-57.2C73,853.3,52.6,804.2,52.6,752.1V247.9c0-52.2,20.3-101.2,57.2-138.1c36.9-36.9,85.9-57.2,138.1-57.2h504.2c52.2,0,101.2,20.3,138.1,57.2c36.9,36.9,57.2,85.9,57.2,138.1V752.1z"/><path d="M436.7,583.1L310.2,452l-63.3,65.6l190,196.9l316.5-328.2L690,320.6L436.7,583.1z"/></g>
</svg>
