<?xml version="1.0" encoding="utf-8"?>
<!-- Generator: Adobe Illustrator 19.0.0, SVG Export Plug-In . SVG Version: 6.00 Build 0)  -->
<svg version="1.1" xmlns="http://www.w3.org/2000/svg" xmlns:xlink="http://www.w3.org/1999/xlink" x="0px" y="0px"
	 viewBox="0 0 1000 1000" enable-background="new 0 0 1000 1000" xml:space="preserve">
<g>
	<path d="M911.9,91H88.6C55.7,91,29,117.7,29,150.6v566.5c0,32.8,26.8,59.6,59.6,59.6h44.8c2.7,8.4,7.7,16.7,15.1,24.4
		c1.8,1.9,4.2,3.3,6.7,3.9c74.7,19.3,93.2,43.4,97.6,56c4.9,14-3.2,25.2-3.7,25.9c-4.8,6.2-3.7,15.1,2.4,19.9
		c6.2,4.9,15.1,3.9,20.1-2.3c6.8-8.6,16.2-29.2,8.5-52.2c-10.6-31.6-48.8-56.4-113.5-73.8c-5.4-6.4-7-11.7-7-15.9v-0.1
		c0-5.7,3.6-11.5,10.1-16.4c0.2-0.1,0.4-0.3,0.6-0.4c1.9-1.4,3.9-2.7,6.2-3.9c0.5-0.3,1.1-0.6,1.6-0.8c2.7-1.4,5.9-2.4,9-3.5
		c5-1.2,13.9-2.8,28.2-2.8c25,0,54.2,4.9,86.6,14.5c5.4,2.4,10.9,4.8,16.3,7.7c1.7,0.9,3.3,1.8,5,2.8c6.9,3.9,13.8,8.1,20.7,12.9
		c0.6,0.4,1.2,0.7,1.8,1.1c109.2,76.7,97,115.4,97.1,115.4l0,0c-3.7,7-1,15.6,5.9,19.3c2.1,1.1,4.4,1.7,6.7,1.7
		c5.1,0,10.1-2.8,12.6-7.6c4.5-8.5,19.4-51.3-71.2-125.6h252.7c-90.6,74.4-75.7,117.2-71.2,125.6c2.6,4.9,7.8,7.9,13.1,7.9
		c2.1,0,4.3-0.5,6.4-1.6c7-3.7,9.8-11.9,6.1-18.9c-0.1-0.4-13-39.1,96.8-116.1c7.7-5.4,15.2-10,22.8-14.2c1.4-0.8,2.8-1.6,4.1-2.3
		c5.7-3,11.3-5.6,17-8.1c32.4-9.5,61.5-14.4,86.4-14.4c14.3,0,23.2,1.6,28.1,2.8c3.1,1.1,6.4,2.2,9.1,3.6c0.5,0.3,1,0.5,1.5,0.7
		c2.4,1.3,4.7,2.7,6.6,4.1l0.3,0.2c6.5,5,10.1,10.7,10.2,16.5c0,0.1,0.1,0.1,0.1,0.2c-0.1,4.2-1.7,9.5-7,15.8
		c-64.7,17.4-102.9,42.2-113.5,73.8c-7.7,23.1,1.7,43.7,8.5,52.2c4.9,6.2,13.9,7.2,20.1,2.3c6.2-4.9,7.2-13.9,2.3-20
		c-0.1-0.1-8.5-11.3-3.7-25.4c4.2-12.7,22.6-36.9,97.7-56.4c2.6-0.7,4.9-2,6.7-3.9c7.5-7.8,12.5-16.1,15.2-24.5
		c32.2-0.7,58.3-27,58.3-59.5V150.6C971.5,117.7,944.8,91,911.9,91L911.9,91z M180.6,405h127.1c5.4,18.9,14.5,56.9-7,117.4l-1.5,4.2
		c-10.4,29-23.4,35.1,5.4,109.6c17.6,45.5,6.8,71.4-0.6,82.4c0,0,0,0-0.1,0c-1.3-0.5-2.5-1-3.8-1.5c-17-6.4-33.5-10.5-49.1-12.6
		c-1.3-0.2-2.7-0.4-4-0.5c-7.3-0.8-14.4-1.3-21.2-1.3c-1.5,0-3,0.1-4.6,0.1c-5.7,0.1-11.2,0.5-16.5,1.2c-1.4,0.2-2.8,0.3-4.2,0.5
		c-1.1,0.2-2.1,0.5-3.2,0.6c5-23.6,8.3-58.6-7.2-82c-16.7-25.2-20.6-72.8-0.3-131.3C198.6,466.7,188.1,431.1,180.6,405L180.6,405z
		 M742,636.3c28.8-74.6,15.8-80.7,5.4-109.7l-1.5-4.1c-21.5-60.6-12.3-98.6-6.9-117.4H866c-7.5,26-18,61.6-9.2,86.9
		c20.2,58.6,16.4,106.2-0.3,131.3c-15.6,23.4-12.2,58.4-7.3,82c-1.1-0.2-2.1-0.5-3.3-0.6c-0.9-0.1-1.9-0.2-2.9-0.3
		c-5.9-0.8-12.1-1.2-18.6-1.4c-0.9,0-1.7-0.1-2.5-0.1c-23.9-0.1-50.9,4.6-79.3,15.9C735.2,707.8,724.3,681.8,742,636.3L742,636.3z
		 M942.9,717.1c0,16.7-13.2,30.3-29.8,31c-1.9-5.5-4.9-10.8-9.2-15.7c-0.6-0.7-1.3-1.3-1.9-1.9c-0.2-0.3-0.5-0.5-0.7-0.7
		c-2.1-2.2-4.5-4.2-7.1-6.2c-0.8-0.6-1.7-1.3-2.5-1.9c-2-1.4-4.2-2.8-6.5-4.1c-1-0.6-1.8-1.2-2.8-1.8c-0.3-0.2-0.7-0.3-1-0.4
		c0,0-0.1,0-0.1-0.1c-5.4-18.3-13.5-57.7-1-76.4c23.8-35.8,25.4-93,3.5-156.5c-5.9-17.1,3.3-49.2,12-77.5h5.6
		c7.9,0,14.3-6.4,14.3-14.3c0-7.9-6.4-14.3-14.3-14.3h-16H728.6h-12.3c-7.9,0-14.3,6.4-14.3,14.3c0,5.5,3.2,10.2,7.8,12.6
		c-6.4,25.4-13.3,65.7,9.1,128.7l1.5,4.3c9.3,25.8,19.8,25-5.1,89.6c-20.3,52.4-9.7,86.5,1.1,104.8c-9.5,5-19.1,10.8-28.8,17.4l0,0
		H359.2c-0.9-0.6-1.8-1.1-2.8-1.7c-7.8-5.3-15.7-10-23.4-14.2c-0.9-0.5-1.9-1.1-2.9-1.7c10.8-18.3,21.4-52.4,1.1-104.7
		c-25-64.5-14.5-63.7-5.2-89.5l1.6-4.4c22.4-63,15.5-103.2,9.1-128.7c4.6-2.4,7.9-7,7.9-12.6c0-7.9-6.4-14.3-14.3-14.3H318H161.2
		h-16c-7.9,0-14.3,6.4-14.3,14.3c0,7.9,6.4,14.3,14.3,14.3h5.6c8.7,28.4,17.9,60.4,12,77.5c-21.6,62.3-19.9,121.2,3.5,156.5
		c12.4,18.6,4.4,58.1-1,76.4c-0.3,0.2-0.8,0.3-1.1,0.5c-1.1,0.6-2.1,1.3-3.1,1.9c-2.1,1.2-4.2,2.5-6.1,3.8c-0.9,0.7-1.9,1.3-2.8,2
		c-2.5,1.9-4.8,3.9-6.8,6c-0.3,0.3-0.6,0.6-0.9,0.9c-0.6,0.6-1.3,1.2-1.9,1.8c-1.7,2-3.1,4.2-4.5,6.3c0,0.1-0.1,0.1-0.1,0.2
		c-1.9,3-3.5,6.1-4.6,9.3H88.6c-17.1,0-31-13.9-31-31V150.6c0-17.1,13.9-31,31-31h823.3c17.1,0,31,13.9,31,31L942.9,717.1
		L942.9,717.1z M942.9,717.1"/>
	<path d="M470,278.5c0-7.9-6.4-14.3-14.3-14.3c-48.4,0-89.4-29.9-109.2-44.3c-4.5-3.3-8.1-5.9-10.6-7.3
		c-6.8-4-15.5-1.8-19.6,5c-4,6.8-1.8,15.5,5,19.6c1.9,1.2,4.7,3.2,8.3,5.9c22.2,16.2,68.3,49.8,126,49.8
		C463.6,292.8,470,286.4,470,278.5L470,278.5z M470,278.5"/>
	<path d="M674.7,212.6c-2.4,1.5-6,4-10.6,7.3c-19.7,14.4-60.7,44.3-109.2,44.3c-7.9,0-14.3,6.4-14.3,14.3
		c0,7.9,6.4,14.3,14.3,14.3c57.7,0,103.8-33.6,126-49.8c3.6-2.6,6.4-4.7,8.4-5.9c6.8-4,9-12.8,5-19.6
		C690.2,210.7,681.4,208.5,674.7,212.6L674.7,212.6z M674.7,212.6"/>
	<path d="M602.2,620.7l-96.1-43.1c-3.9-1.8-8.5-1.7-12.3,0.3l-85,43.1c-7.1,3.6-9.9,12.2-6.3,19.2
		c3.5,7,12.1,9.8,19.2,6.3l78.9-40l89.9,40.3c1.9,0.9,3.9,1.3,5.9,1.3c5.4,0,10.7-3.1,13-8.4C612.6,632.4,609.4,623.9,602.2,620.7
		L602.2,620.7z M602.2,620.7"/>
</g>
</svg>
