<?xml version="1.0" encoding="utf-8"?>
<!-- Svg Vector Icons : http://www.sfont.cn -->
<!DOCTYPE svg PUBLIC "-//W3C//DTD SVG 1.1//EN" "http://www.w3.org/Graphics/SVG/1.1/DTD/svg11.dtd">
<svg version="1.1" xmlns="http://www.w3.org/2000/svg" xmlns:xlink="http://www.w3.org/1999/xlink" x="0px" y="0px" viewBox="0 0 1000 1000" enable-background="new 0 0 1000 1000" xml:space="preserve">
<metadata> Svg Vector Icons : http://www.sfont.cn </metadata>
<g><g><path d="M810.7,900.3v-89.7h89.7c0,23.6-9,44.5-27.1,62.6C855.2,891.3,834.3,900.3,810.7,900.3z M810.7,543.8v-87.6h89.7v87.6H810.7z M633.4,189.3V99.7h89.7v89.7H633.4z M810.7,723.1v-89.7h89.7v89.7H810.7z M456.2,990V10h87.6v980H456.2z M810.7,99.7c23.6,0,44.5,9,62.6,27.1c18.1,18.1,27.1,38.9,27.1,62.6h-89.7V99.7z M99.7,189.3c0-23.6,9-44.5,27.1-62.6c18.1-18.1,38.9-27.1,62.6-27.1h177.2v89.7H189.3v621.4h177.2v89.7H189.3c-23.6,0-44.5-9-62.6-27.1c-18.1-18.1-27.1-38.9-27.1-62.6V189.3z M810.7,366.6v-89.7h89.7v89.7H810.7z M633.4,900.3v-89.7h89.7v89.7H633.4z"/></g></g>
</svg>
