<?xml version="1.0" encoding="utf-8"?>
<!-- Svg Vector Icons : http://www.sfont.cn -->
<!DOCTYPE svg PUBLIC "-//W3C//DTD SVG 1.1//EN" "http://www.w3.org/Graphics/SVG/1.1/DTD/svg11.dtd">
<svg version="1.1" xmlns="http://www.w3.org/2000/svg" xmlns:xlink="http://www.w3.org/1999/xlink" x="0px" y="0px" viewBox="0 0 1000 1000" enable-background="new 0 0 1000 1000" xml:space="preserve">
<metadata> Svg Vector Icons : http://www.sfont.cn </metadata>
<g><path d="M887.9,887.9H112.1C55.8,887.9,10,842.1,10,785.8V214.2c0-56.3,45.8-102.1,102.1-102.1h775.8c56.3,0,102.1,45.8,102.1,102.1v571.7C990,842.1,944.2,887.9,887.9,887.9z M112.1,152.9c-33.8,0-61.3,27.5-61.3,61.3v571.7c0,33.8,27.5,61.3,61.3,61.3h775.8c33.8,0,61.3-27.5,61.3-61.3V214.2c0-33.8-27.5-61.3-61.3-61.3H112.1z"/><path d="M969.6,357.1H30.4c-11.3,0-20.4-9.1-20.4-20.4c0-11.3,9.1-20.4,20.4-20.4h939.2c11.3,0,20.4,9.1,20.4,20.4C990,347.9,980.9,357.1,969.6,357.1z"/><path d="M132.5,234.6c0,22.6,18.3,40.8,40.8,40.8c22.6,0,40.8-18.3,40.8-40.8c0-22.6-18.3-40.8-40.8-40.8C150.8,193.8,132.5,212,132.5,234.6z"/><path d="M255,234.6c0,22.6,18.3,40.8,40.8,40.8c22.6,0,40.8-18.3,40.8-40.8c0-22.6-18.3-40.8-40.8-40.8C273.3,193.8,255,212,255,234.6L255,234.6z"/><path d="M377.5,234.6c0,22.6,18.3,40.8,40.8,40.8c22.6,0,40.8-18.3,40.8-40.8c0-22.6-18.3-40.8-40.8-40.8C395.8,193.8,377.5,212,377.5,234.6z"/></g>
</svg>