<?xml version="1.0" encoding="utf-8"?>
<!-- Svg Vector Icons : http://www.sfont.cn -->
<!DOCTYPE svg PUBLIC "-//W3C//DTD SVG 1.1//EN" "http://www.w3.org/Graphics/SVG/1.1/DTD/svg11.dtd">
<svg version="1.1" xmlns="http://www.w3.org/2000/svg" xmlns:xlink="http://www.w3.org/1999/xlink" x="0px" y="0px" viewBox="0 0 1000 1000" enable-background="new 0 0 1000 1000" xml:space="preserve">
<metadata> Svg Vector Icons : http://www.sfont.cn </metadata>
<g><path d="M500,990C229.8,990,10,770.2,10,500C10,229.8,229.8,10,500,10c270.2,0,490,219.8,490,490C990,770.2,770.2,990,500,990z M500,61.6C258.3,61.6,61.6,258.3,61.6,500c0,241.7,196.7,438.4,438.4,438.4c241.7,0,438.4-196.7,438.4-438.4C938.4,258.3,741.7,61.6,500,61.6z"/><path d="M706.3,500c0,113.9-92.4,206.3-206.3,206.3c-114,0-206.3-92.4-206.3-206.3c0-113.9,92.4-206.3,206.3-206.3C613.9,293.7,706.3,386.1,706.3,500z"/></g>
</svg>