<?xml version="1.0" encoding="utf-8"?>
<!-- Svg Vector Icons : http://www.sfont.cn -->
<!DOCTYPE svg PUBLIC "-//W3C//DTD SVG 1.1//EN" "http://www.w3.org/Graphics/SVG/1.1/DTD/svg11.dtd">
<svg version="1.1" xmlns="http://www.w3.org/2000/svg" xmlns:xlink="http://www.w3.org/1999/xlink" x="0px" y="0px" viewBox="0 0 1000 1000" enable-background="new 0 0 1000 1000" xml:space="preserve">
<metadata> Svg Vector Icons : http://www.sfont.cn </metadata>
<g><g><path d="M406.1,10v980h187.8V10H406.1z M574.8,970.9H425.2V29.1h149.6V970.9z M558.9,45H439.6v97h119.3V45z M452.1,119l47.1-62.8l47.1,62.8H452.1z M558.9,860.1H439.6v97h119.3V860.1z M499.2,946l-47.1-62.8h94.2L499.2,946z M545.4,635.7V293.2h-92.3v342.6H545.4z M530.4,502.5h-61.5v-15.9h61.5V502.5z M530.4,465.1h-61.5v-15.9h61.5V465.1z M468.1,414.2h61.5v15.9h-61.5V414.2z"/></g><g></g><g></g><g></g><g></g><g></g><g></g><g></g><g></g><g></g><g></g><g></g><g></g><g></g><g></g><g></g></g>
</svg>