<?xml version="1.0" encoding="utf-8"?>
<!-- Svg Vector Icons : http://www.sfont.cn -->
<!DOCTYPE svg PUBLIC "-//W3C//DTD SVG 1.1//EN" "http://www.w3.org/Graphics/SVG/1.1/DTD/svg11.dtd">
<svg version="1.1" xmlns="http://www.w3.org/2000/svg" xmlns:xlink="http://www.w3.org/1999/xlink" x="0px" y="0px" viewBox="0 0 1000 1000" enable-background="new 0 0 1000 1000" xml:space="preserve">
<metadata> Svg Vector Icons : http://www.sfont.cn </metadata>
<g><path d="M714.4,224.4H285.6C133.4,224.4,10,347.8,10,500c0,152.2,123.4,275.6,275.6,275.6h428.8C866.6,775.6,990,652.2,990,500C990,347.8,866.6,224.4,714.4,224.4z M714.4,729.7H285.6C158.8,729.7,55.9,626.8,55.9,500s102.8-229.7,229.7-229.7h428.8c126.8,0,229.7,102.8,229.7,229.7S841.2,729.7,714.4,729.7z"/><path d="M541.8,500c0,93,75.4,168.4,168.4,168.4S878.7,593,878.7,500s-75.4-168.4-168.4-168.4S541.8,407,541.8,500z"/></g>
</svg>